<svg xmlns="http://www.w3.org/2000/svg" xmlns:xlink="http://www.w3.org/1999/xlink" width="500" zoomAndPan="magnify" viewBox="0 0 375 374.999991" height="500" preserveAspectRatio="xMidYMid meet" version="1.0"><defs><clipPath id="9c7d679b73"><path d="M 16 12.003906 L 362 12.003906 L 362 362.902344 L 16 362.902344 Z M 16 12.003906 " clip-rule="nonzero"/></clipPath></defs><g clip-path="url(#9c7d679b73)"><path fill="#000000" d="M 183.777344 362.980469 C 180.492188 362.980469 177.207031 361.726562 174.707031 359.222656 L 55.84375 240.359375 C 4.011719 188.523438 2.964844 104.140625 53.519531 52.257812 C 78.457031 26.675781 111.925781 12.421875 147.769531 12.121094 C 183.695312 11.949219 217.332031 25.523438 242.667969 50.679688 L 251.324219 59.3125 C 261.332031 52.746094 273.039062 49.21875 285.285156 49.21875 C 301.863281 49.21875 317.449219 55.671875 329.171875 67.394531 C 372.042969 110.261719 372.035156 180.019531 329.171875 222.878906 L 192.84375 359.222656 C 190.34375 361.726562 187.058594 362.980469 183.777344 362.980469 Z M 148.910156 37.773438 C 148.601562 37.773438 148.292969 37.773438 147.984375 37.773438 C 119.039062 38.011719 92.015625 49.519531 71.898438 70.160156 C 31.085938 112.039062 32.023438 180.253906 73.992188 222.21875 L 183.777344 332.003906 L 311.039062 204.738281 C 343.90625 171.875 343.90625 118.402344 311.039062 85.527344 C 304.164062 78.652344 295.023438 74.863281 285.292969 74.863281 C 279.664062 74.863281 274.222656 76.132812 269.3125 78.535156 C 283.867188 97.585938 291.753906 120.753906 291.753906 145.136719 C 291.753906 174.503906 280.316406 202.117188 259.554688 222.886719 L 192.84375 289.597656 C 187.839844 294.609375 179.71875 294.609375 174.707031 289.597656 L 90.417969 205.308594 C 58.039062 172.925781 57.003906 120.007812 88.101562 87.332031 C 103.714844 70.929688 124.832031 61.707031 147.558594 61.355469 C 170.273438 61.105469 191.707031 69.582031 207.808594 85.492188 C 212.105469 89.765625 219.042969 89.757812 223.296875 85.496094 L 232.265625 76.527344 L 224.570312 68.863281 C 204.367188 48.800781 177.515625 37.773438 148.910156 37.773438 Z M 148.886719 87.003906 C 148.578125 87.003906 148.269531 87.003906 147.960938 87.011719 C 132.171875 87.253906 117.519531 93.648438 106.691406 105.023438 C 85.105469 127.691406 85.949219 164.546875 108.5625 187.167969 L 183.78125 262.386719 L 241.414062 204.753906 C 271.199219 174.972656 273.992188 128.257812 249.796875 95.300781 L 241.441406 103.652344 C 227.203125 117.882812 204.023438 117.914062 189.753906 103.714844 C 178.835938 92.925781 164.34375 87.003906 148.886719 87.003906 Z M 148.886719 87.003906 " fill-opacity="1" fill-rule="nonzero"/></g></svg>